<?xml version="1.0" encoding="utf-8"?>
<!-- Generated by IcoMoon.io -->
<!DOCTYPE svg PUBLIC "-//W3C//DTD SVG 1.1//EN" "http://www.w3.org/Graphics/SVG/1.1/DTD/svg11.dtd">

<svg version="1.1" xmlns="http://www.w3.org/2000/svg" xmlns:xlink="http://www.w3.org/1999/xlink" width="272" height="32" viewBox="0 0 272 32">
<defs>
<g id="icon-googleplus">
	<path class="path1" d="M17.471 2c0 0-6.28 0-8.373 0-3.754 0-7.287 2.844-7.287 6.138 0 3.366 2.559 6.083 6.378 6.083 0.266 0 0.524-0.005 0.776-0.024-0.248 0.475-0.425 1.009-0.425 1.564 0 0.936 0.503 1.694 1.14 2.313-0.481 0-0.945 0.014-1.452 0.014-4.649-0-8.228 2.961-8.228 6.032 0 3.024 3.923 4.916 8.573 4.916 5.301 0 8.228-3.008 8.228-6.032 0-2.425-0.715-3.877-2.928-5.442-0.757-0.536-2.204-1.839-2.204-2.604 0-0.897 0.256-1.34 1.607-2.395 1.385-1.082 2.365-2.603 2.365-4.372 0-2.106-0.938-4.159-2.699-4.837h2.655l1.874-1.355zM14.546 22.483c0.066 0.28 0.103 0.569 0.103 0.863 0 2.444-1.575 4.353-6.093 4.353-3.214 0-5.535-2.035-5.535-4.478 0-2.395 2.879-4.389 6.093-4.354 0.75 0.008 1.449 0.129 2.083 0.334 1.745 1.213 2.996 1.899 3.349 3.281zM9.401 13.368c-2.157-0.065-4.207-2.413-4.58-5.246s1.074-5.001 3.231-4.937c2.157 0.065 4.207 2.338 4.58 5.171s-1.075 5.077-3.231 5.012zM26 8v-6h-2v6h-6v2h6v6h2v-6h6v-2z"></path>
</g>
<g id="icon-facebook">
	<path class="path1" d="M17.996 32h-5.996v-16h-4v-5.514l4-0.002-0.007-3.248c0-4.498 1.22-7.236 6.519-7.236h4.412v5.515h-2.757c-2.064 0-2.163 0.771-2.163 2.209l-0.008 2.76h4.959l-0.584 5.514-4.37 0.002-0.004 16z"></path>
</g>
<g id="icon-twitter">
	<path class="path1" d="M32 6.076c-1.177 0.522-2.443 0.875-3.771 1.034 1.355-0.813 2.396-2.099 2.887-3.632-1.269 0.752-2.674 1.299-4.169 1.593-1.198-1.276-2.904-2.073-4.792-2.073-3.626 0-6.565 2.939-6.565 6.565 0 0.515 0.058 1.016 0.17 1.496-5.456-0.274-10.294-2.888-13.532-6.86-0.565 0.97-0.889 2.097-0.889 3.301 0 2.278 1.159 4.287 2.921 5.465-1.076-0.034-2.088-0.329-2.974-0.821-0.001 0.027-0.001 0.055-0.001 0.083 0 3.181 2.263 5.834 5.266 6.437-0.551 0.15-1.131 0.23-1.73 0.23-0.423 0-0.834-0.041-1.235-0.118 0.835 2.608 3.26 4.506 6.133 4.559-2.247 1.761-5.078 2.81-8.154 2.81-0.53 0-1.052-0.031-1.566-0.092 2.905 1.863 6.356 2.95 10.064 2.95 12.076 0 18.679-10.004 18.679-18.68 0-0.285-0.006-0.568-0.019-0.849 1.283-0.926 2.396-2.082 3.276-3.398z"></path>
</g>
<g id="icon-github">
	<path class="path1" d="M16 0c-8.837 0-16 7.163-16 16s7.163 16 16 16 16-7.163 16-16-7.163-16-16-16zM25.502 25.502c-1.235 1.235-2.672 2.204-4.272 2.881-0.406 0.172-0.819 0.323-1.238 0.453v-2.398c0-1.26-0.432-2.188-1.297-2.781 0.542-0.052 1.039-0.125 1.492-0.219s0.932-0.229 1.438-0.406 0.958-0.388 1.359-0.633 0.786-0.563 1.156-0.953 0.68-0.833 0.93-1.328 0.448-1.089 0.594-1.781 0.219-1.456 0.219-2.289c0-1.615-0.526-2.99-1.578-4.125 0.479-1.25 0.427-2.609-0.156-4.078l-0.391-0.047c-0.271-0.031-0.758 0.083-1.461 0.344s-1.492 0.688-2.367 1.281c-1.24-0.344-2.526-0.516-3.859-0.516-1.344 0-2.625 0.172-3.844 0.516-0.552-0.375-1.075-0.685-1.57-0.93s-0.891-0.411-1.188-0.5-0.573-0.143-0.828-0.164-0.419-0.026-0.492-0.016-0.125 0.021-0.156 0.031c-0.583 1.479-0.635 2.839-0.156 4.078-1.052 1.135-1.578 2.51-1.578 4.125 0 0.833 0.073 1.596 0.219 2.289s0.344 1.286 0.594 1.781 0.56 0.938 0.93 1.328 0.755 0.708 1.156 0.953 0.854 0.456 1.359 0.633 0.984 0.313 1.438 0.406 0.95 0.167 1.492 0.219c-0.854 0.583-1.281 1.51-1.281 2.781v2.445c-0.472-0.14-0.937-0.306-1.394-0.5-1.6-0.677-3.037-1.646-4.272-2.881s-2.204-2.672-2.881-4.272c-0.7-1.655-1.055-3.414-1.055-5.23s0.355-3.575 1.055-5.23c0.677-1.6 1.646-3.037 2.881-4.272s2.672-2.204 4.272-2.881c1.655-0.7 3.415-1.055 5.23-1.055s3.575 0.355 5.23 1.055c1.6 0.677 3.037 1.646 4.272 2.881s2.204 2.672 2.881 4.272c0.7 1.655 1.055 3.415 1.055 5.23s-0.355 3.575-1.055 5.23c-0.677 1.6-1.646 3.037-2.881 4.272z"></path>
</g>
<g id="icon-mail">
	<path class="path1" d="M28 5h-24c-2.209 0-4 1.792-4 4v13c0 2.209 1.791 4 4 4h24c2.209 0 4-1.791 4-4v-13c0-2.208-1.791-4-4-4zM2 10.25l6.999 5.25-6.999 5.25v-10.5zM30 22c0 1.104-0.898 2-2 2h-24c-1.103 0-2-0.896-2-2l7.832-5.875 4.368 3.277c0.533 0.398 1.166 0.6 1.8 0.6 0.633 0 1.266-0.201 1.799-0.6l4.369-3.277 7.832 5.875zM30 20.75l-7-5.25 7-5.25v10.5zM17.199 18.602c-0.349 0.262-0.763 0.4-1.199 0.4s-0.851-0.139-1.2-0.4l-12.8-9.602c0-1.103 0.897-2 2-2h24c1.102 0 2 0.897 2 2l-12.801 9.602z"></path>
</g>
<g id="icon-linkedin">
	<path class="path1" d="M8.122 4.88c0 1.701-1.256 3.078-3.322 3.078-1.944 0-3.2-1.378-3.2-3.078 0-1.741 1.298-3.078 3.282-3.078s3.2 1.338 3.24 3.078zM1.763 30.198v-19.808h6.157v19.808h-6.157zM11.605 16.709c0-2.47-0.082-4.536-0.163-6.318h5.347l0.285 2.755h0.122c0.81-1.298 2.795-3.2 6.117-3.2 4.050 0 7.088 2.714 7.088 8.547v11.707h-6.157v-10.978c0-2.552-0.893-4.294-3.12-4.294-1.701 0-2.712 1.174-3.158 2.309-0.163 0.405-0.203 0.971-0.203 1.539v11.424h-6.157v-13.491z"></path>
</g>
</defs>

<g fill="#000000">
	<use xlink:href="#icon-googleplus" transform="translate(0 0)"></use>
	<use xlink:href="#icon-facebook" transform="translate(48 0)"></use>
	<use xlink:href="#icon-twitter" transform="translate(96 0)"></use>
	<use xlink:href="#icon-github" transform="translate(144 0)"></use>
	<use xlink:href="#icon-mail" transform="translate(192 0)"></use>
	<use xlink:href="#icon-linkedin" transform="translate(240 0)"></use>
</g>

</svg>
